<!-- sample rectangle -->
<svg width="199" height="179" viewBox="0 0 199 179" fill="none" xmlns="http://www.w3.org/2000/svg">
<path d="M87.4835 0.369965C75.4843 2.06816 62.2885 7.56235 53.0148 14.7214C51.9844 15.5206 49.425 17.7516 47.3642 19.6495L43.575 23.1791H35.5976C25.3601 23.2124 21.6705 23.5454 18.4796 24.6443C14.2583 26.1427 11.3 28.0407 7.84317 31.5037C4.4528 34.8668 2.75762 37.5972 1.16215 42.159C0.397661 44.3234 0.39766 44.4233 0.131749 72.6268C-0.134162 101.962 -0.00120609 121.475 0.563855 125.704C1.82693 135.527 8.77386 143.385 19.643 147.314L21.9697 148.147L72.659 148.313L123.315 148.446L127.005 151.81C134.084 158.269 145.984 168.958 148.178 170.823C150.604 172.921 151.801 173.287 153.928 172.721C156.654 171.988 157.152 171.256 160.875 162.032C162.77 157.37 164.764 152.409 165.362 150.977L166.426 148.446L170.98 148.247C176.564 147.98 180.32 147.148 183.91 145.383C191.023 141.853 195.477 136.326 198.103 127.668L199 124.772L198.867 85.2135C198.767 54.6791 198.668 45.2891 198.335 43.9904C197.704 41.4598 194.945 35.9323 193.183 33.6014C190.391 29.9053 185.306 26.2759 180.685 24.6443C177.129 23.4122 174.569 23.2124 162.969 23.1791H152.366L148.809 19.8493C144.621 15.9535 142.261 14.0555 138.638 11.6913C130.894 6.6633 121.952 3.0338 112.512 1.00262C108.79 0.236771 107.527 0.136871 99.5825 0.036972C93.1674 -0.062912 89.8767 0.036972 87.4835 0.369965ZM103.571 9.52693C118.163 10.8255 131.725 17.0856 142.594 27.5079C153.895 38.3964 159.911 51.2494 160.941 66.8662L161.174 70.4624H155.524H149.873L149.64 68.0316C148.543 56.677 143.956 46.8208 135.846 38.3964C129.331 31.6369 122.75 27.408 114.44 24.6776C107.959 22.5465 106.529 22.3467 97.5882 22.3467C90.6412 22.3467 89.3782 22.4466 86.3202 23.1125C64.5819 27.9741 48.4278 45.2225 46.0679 66.167C45.8352 68.0649 45.6025 69.8297 45.5361 70.0295C45.4696 70.3625 44.0736 70.4624 40.0849 70.4624H34.7667V68.3313C34.7667 65.2346 35.365 59.7737 36.0962 56.0776C37.5587 48.9185 40.517 42.0591 44.6719 36.1654C49.2588 29.6723 57.4023 22.3134 62.6209 20.0158C63.5515 19.5829 64.3493 19.0502 64.3493 18.8837C64.3493 18.2843 74.0883 13.6559 78.0437 12.3906C86.6858 9.62682 94.5967 8.72777 103.571 9.52693ZM106.131 31.9698C114.507 33.8012 123.481 38.8625 128.999 44.9228C131.525 47.6865 134.65 52.1485 135.979 55.0121C140.699 64.9682 140.965 76.3562 136.71 86.945C132.855 96.5348 123.382 105.592 113.21 109.388C108.158 111.253 105.266 111.819 99.2501 111.985C90.7409 112.251 86.0875 111.319 79.1406 107.956C68.5706 102.861 61.0586 94.3704 57.5353 83.6151C56.1725 79.4196 55.7072 76.2563 55.7072 70.9286C55.7072 64.9016 57.0367 59.4074 59.862 53.8134C62.6873 48.2526 68.205 42.159 73.9221 38.3631C79.9715 34.334 85.19 32.436 93.1009 31.3705C95.2947 31.0708 103.87 31.4704 106.131 31.9698Z" fill="black"/>
<path d="M87.1179 46.4545C86.7523 46.621 86.154 47.0871 85.7883 47.4867C85.1568 48.186 85.1236 48.7853 85.0238 68.4312C84.9574 79.5195 84.9906 90.1415 85.1236 92.0062C85.323 95.0364 85.4559 95.5025 86.1872 96.2351C87.4503 97.5337 88.8795 97.6336 90.8074 96.668C92.9679 95.5358 120.39 75.7235 121.786 74.2917C122.916 73.0596 123.149 71.8276 122.517 70.3958C122.085 69.4634 116.401 65.168 101.411 54.4793C89.8435 46.1881 88.9128 45.6553 87.1179 46.4545Z" fill="#F57B01"/>
<path d="M27.2879 158.536C26.3572 159.435 26.2575 160.034 26.8226 161.133C27.3876 162.165 27.7533 162.365 29.4817 162.365C31.2766 162.365 32.4399 161.466 32.4399 160.068C32.4399 157.837 28.9831 156.804 27.2879 158.536Z" fill="#F57B01"/>
<path d="M17.8148 169.191V178.681H20.4739H23.133V169.191V159.701H20.4739H17.8148V169.191Z" fill="black"/>
<path d="M50.0565 169.191V178.681H52.5494H55.0424V176.916C55.0424 175.351 55.4412 174.352 56.0395 174.352C56.1725 174.352 56.937 175.318 57.7347 176.517L59.1972 178.681H62.1222C63.7177 178.681 65.014 178.615 65.014 178.515C65.014 178.448 63.8174 176.816 62.3549 174.918C60.9256 173.02 59.6958 171.322 59.6293 171.156C59.5961 170.989 60.9256 169.557 62.5876 167.926L65.6123 165.029H62.1887H58.7319L57.1696 166.86C56.3054 167.859 55.4745 168.692 55.3083 168.692C55.1753 168.692 55.0424 166.661 55.0424 164.196V159.701H52.5494H50.0565V169.191Z" fill="black"/>
<path d="M100.58 169.191V178.681H103.073H105.565V169.191V159.701H103.073H100.58V169.191Z" fill="black"/>
<path d="M109.222 169.191V178.681H111.881H114.507L114.606 176.617C114.673 175.451 114.872 174.519 115.105 174.452C115.304 174.386 116.169 175.285 117.033 176.483L118.595 178.681H121.553H124.545L121.853 175.118C120.357 173.187 119.06 171.389 118.994 171.189C118.894 170.956 120.224 169.491 121.919 167.926L125.01 165.029H121.686H118.396L116.468 166.927L114.54 168.825V164.263V159.701H111.881H109.222V169.191Z" fill="black"/>
<path d="M1.86017 169.691V178.681H4.68547H7.51078V175.518V172.354H10.6685H13.8262V170.19V168.026H10.6685H7.51078V166.694V165.362H11.1671H14.8233V163.031V160.7H8.34175H1.86017V169.691Z" fill="black"/>
<path d="M66.3436 163.031V165.362H69.0027H71.6618V172.022V178.681H74.4872H77.3125V172.022V165.362H80.1378H82.9631V163.031V160.7H74.6533H66.3436V163.031Z" fill="black"/>
<path d="M39.4866 165.129C35.2985 166.661 33.5701 171.322 35.6973 175.385C36.4286 176.816 36.9604 177.349 38.4229 178.115C40.0516 178.981 40.4837 179.047 42.611 178.948C44.971 178.781 47.7631 177.682 47.7298 176.883C47.6966 176.683 47.1315 175.851 46.4003 175.052C45.4363 173.92 45.0042 173.653 44.6718 173.92C44.4392 174.119 43.8076 174.352 43.2758 174.486C40.0849 175.251 38.5227 170.856 41.4809 169.424C42.2122 169.091 42.611 169.091 43.7744 169.491C45.3699 170.057 45.7355 169.89 47.1315 167.926C47.7631 167.027 47.7631 166.96 47.198 166.328C45.9682 164.962 41.7801 164.296 39.4866 165.129Z" fill="black"/>
<path d="M85.7884 165.162C84.3591 165.795 82.7304 167.759 82.265 169.424C81.7 171.522 82.0656 174.419 83.096 176.184C84.625 178.781 87.7494 179.747 90.3753 178.381C91.3392 177.882 91.6052 177.849 91.6052 178.215C91.6052 178.581 92.2035 178.681 94.2643 178.681H96.9234V171.855V165.029H94.4305C92.4361 165.029 91.9375 165.129 91.9375 165.528C91.9375 166.161 91.8378 166.161 90.3753 165.362C88.946 164.596 87.2509 164.529 85.7884 165.162ZM90.9404 169.624C91.5054 170.09 91.6716 170.556 91.6716 171.822C91.6716 173.753 90.9404 174.685 89.4446 174.685C87.9489 174.685 87.1844 173.72 87.1844 171.855C87.1844 169.324 89.1455 168.159 90.9404 169.624Z" fill="black"/>
<path d="M26.7893 171.855V178.681H29.4484H32.1075V171.855V165.029H29.4484H26.7893V171.855Z" fill="black"/>
</svg>
