<?xml version="1.0" encoding="iso-8859-1"?>
<!-- Generator: Adobe Illustrator 18.1.1, SVG Export Plug-In . SVG Version: 6.00 Build 0)  -->
<svg version="1.1" id="Capa_1" xmlns="http://www.w3.org/2000/svg" xmlns:xlink="http://www.w3.org/1999/xlink" x="0px" y="0px"
	 viewBox="0 0 491.115 491.115" style="enable-background:new 0 0 491.115 491.115;" xml:space="preserve">
<g>
	<g>
		<path d="M475.624,177.416l-154.417-13.033l-60.067-142.8c-2.55-6.233-8.783-10.483-15.583-10.483s-13.033,3.967-15.583,10.483
			l-60.067,142.8L15.491,177.416c-6.8,0.567-12.75,5.1-14.733,11.617s0,13.6,5.1,18.133l117.017,101.15L87.741,459.049
			c-1.417,6.8,1.133,13.6,6.517,17.567c5.667,3.967,13.033,4.25,18.7,0.85l132.6-80.183l132.6,80.183
			c2.833,1.7,5.667,2.55,8.783,2.55c3.4,0,7.083-1.133,9.917-3.117c5.667-3.967,8.217-11.05,6.517-17.567l-35.133-150.733
			l117.017-101.15c5.1-4.533,7.083-11.617,5.1-18.133C488.374,182.516,482.424,177.983,475.624,177.416z M338.208,289.616
			c-4.817,4.25-6.8,10.483-5.383,16.717l28.333,121.55l-106.817-64.6c-2.833-1.7-5.667-2.55-8.783-2.55
			c-3.117,0-6.233,0.85-8.783,2.55l-106.817,64.6l28.333-121.55c1.417-6.233-0.567-12.467-5.383-16.717l-94.35-81.6l124.383-10.483
			c6.233-0.567,11.9-4.533,14.167-10.2l48.45-115.317l48.45,115.033c2.55,5.95,7.933,9.917,14.167,10.2l124.383,10.483
			L338.208,289.616z"/>
	</g>
</g>
<g>
</g>
<g>
</g>
<g>
</g>
<g>
</g>
<g>
</g>
<g>
</g>
<g>
</g>
<g>
</g>
<g>
</g>
<g>
</g>
<g>
</g>
<g>
</g>
<g>
</g>
<g>
</g>
<g>
</g>
</svg>
