<?xml version="1.0" standalone="no"?>
<!DOCTYPE svg PUBLIC "-//W3C//DTD SVG 20010904//EN"
 "http://www.w3.org/TR/2001/REC-SVG-20010904/DTD/svg10.dtd">
<svg version="1.0" xmlns="http://www.w3.org/2000/svg"
 width="196.000000pt" height="202.000000pt" viewBox="0 0 196.000000 202.000000"
 preserveAspectRatio="xMidYMid meet">

<g transform="translate(0.000000,202.000000) scale(0.100000,-0.100000)"
fill="#000000" stroke="none">
<path d="M879 1805 c-150 -30 -303 -112 -415 -222 l-73 -73 -10 38 c-6 20 -15
59 -22 85 -13 52 -37 72 -75 63 -39 -10 -39 -45 1 -194 35 -130 54 -172 79
-172 29 -1 293 75 309 88 24 21 21 59 -6 77 -21 13 -30 13 -90 -4 -37 -10 -67
-15 -67 -10 0 13 96 92 162 131 213 130 466 140 693 29 545 -268 539 -1046
-10 -1307 -107 -51 -184 -68 -310 -68 -169 0 -301 44 -442 147 -101 75 -195
201 -238 322 -24 66 -32 75 -65 75 -64 0 -64 -54 -1 -185 81 -167 219 -302
391 -384 113 -54 184 -72 308 -78 340 -18 643 158 792 459 62 128 83 220 83
368 -1 148 -22 242 -83 366 -116 236 -330 400 -588 450 -90 17 -234 17 -323
-1z"/>
<path d="M799 1279 c-19 -10 -50 -26 -69 -34 -60 -26 -65 -31 -65 -65 0 -45
22 -58 75 -44 l40 11 0 -211 c0 -220 3 -235 43 -250 12 -4 27 3 43 19 l24 24
0 256 c0 156 -4 264 -10 275 -19 35 -44 41 -81 19z"/>
<path d="M1125 1287 c-51 -23 -97 -69 -118 -117 -25 -56 -35 -219 -18 -302 23
-109 98 -179 200 -186 73 -5 116 8 168 53 56 47 75 100 81 220 8 169 -19 248
-106 309 -36 25 -54 31 -110 33 -41 2 -78 -2 -97 -10z m146 -110 c54 -36 60
-57 57 -200 l-3 -129 -32 -29 c-59 -52 -113 -51 -170 6 l-33 33 0 123 c0 79 5
133 13 149 16 33 73 70 107 70 15 0 42 -10 61 -23z"/>
</g>
</svg>
