<?xml version="1.0" standalone="no"?>
<!DOCTYPE svg PUBLIC "-//W3C//DTD SVG 20010904//EN"
 "http://www.w3.org/TR/2001/REC-SVG-20010904/DTD/svg10.dtd">
<svg version="1.0" xmlns="http://www.w3.org/2000/svg"
 width="205.000000pt" height="199.000000pt" viewBox="0 0 205.000000 199.000000"
 preserveAspectRatio="xMidYMid meet">

<g transform="translate(0.000000,199.000000) scale(0.100000,-0.100000)"
fill="#000000" stroke="none">
<path d="M850 1765 c-310 -62 -559 -299 -641 -610 -30 -113 -30 -299 -1 -410
71 -263 263 -478 508 -571 419 -158 882 37 1061 446 47 108 42 150 -18 150
-32 0 -40 -10 -63 -75 -66 -183 -225 -345 -418 -422 -468 -189 -988 167 -988
677 0 564 617 914 1098 622 66 -39 162 -118 162 -131 0 -5 -30 0 -67 10 -60
17 -69 17 -90 4 -27 -18 -30 -56 -5 -77 15 -13 279 -89 308 -88 25 0 44 42 79
174 39 148 39 182 1 192 -38 9 -62 -11 -75 -63 -7 -26 -16 -65 -22 -85 l-10
-38 -73 73 c-193 190 -480 276 -746 222z"/>
<path d="M765 1239 c-16 -11 -53 -31 -81 -43 -56 -26 -71 -52 -47 -85 16 -23
61 -28 94 -11 19 10 19 5 19 -205 0 -202 1 -216 20 -235 24 -24 29 -24 58 -4
22 15 22 17 22 294 0 277 0 279 -22 294 -28 20 -27 20 -63 -5z"/>
<path d="M1095 1247 c-47 -22 -94 -66 -118 -111 -20 -37 -22 -55 -22 -186 0
-130 3 -149 22 -186 45 -85 123 -128 219 -122 74 5 130 37 171 100 28 41 28
43 28 208 0 165 0 167 -28 208 -42 65 -94 94 -175 99 -43 2 -78 -1 -97 -10z
m146 -110 c54 -36 60 -57 57 -200 l-3 -129 -32 -29 c-59 -52 -113 -51 -170 6
l-33 33 0 129 c0 142 6 158 64 194 41 25 76 24 117 -4z"/>
</g>
</svg>
