<?xml version="1.0" encoding="UTF-8"?>
<svg version="1.1" viewBox="0 0 2048 615" width="576" height="173" xmlns="http://www.w3.org/2000/svg">
<path transform="translate(0)" d="m0 0h2048v615h-2048z" fill="#FDFDFD"/>
<path transform="translate(117,24)" d="m0 0h33l34 3 36 6 20 5 39 12 25 9 25 11 23 11 23 13 18 11 22 15 21 16 15 13 17 16 12 13 11 13 12 17 10 17 8 17 7 21 3 17v23l-6 25-6 16-8 13-8 11-10 11-11 9-13 9-17 9-23 9-20 6-24 5-27 3-27 1-21-2-35-6-18-4-2 13-3 5-6 5-11 4-7-1-8-5-6-9-4-12-2-16-2-4-16-9-24-15-14-10-13-11-12-11-12-13-7-8-7-10-7-14-1-11 3-9 6-9 7-7 14-9 15-7 28-10 28-7 22-4 3-36 4-24 4-15 5-12 4-4 5 1 8 9 6 12 3 13 2 19 2 34 32 2 35 5 26 6 15 5 16 8 14 11 9 11 4 9 1 4v10l-3 10-7 9-11 9-12 5-4 1h-9l-10-4-7-6 1-4 16-9 8-7-2-5-10-6-11-4-33-7-40-5-21-2-1 12v101l33 5 17 2h39l32-5 19-5 23-8 15-8 14-10 9-8 9-12 6-12 3-9 2-14-1-21-5-18-7-17-11-18-10-13-9-10-17-17-11-9-13-11-18-13-24-16-22-13-16-8-25-12-28-11-25-9-28-8-38-8-20-3-26-2h-39l-24 3-13 3-2 1v2l16 5 5 4v5l-9 3h-11l-14-2-8-3-6-7 1-9 7-11 11-12 10-5 24-7 19-3z" fill="#020935"/>
<path transform="translate(1163,237)" d="m0 0 5 1v15l-4 12-10 15-13 23-9 21-3 12-2 15 4-4 7-9 11-13 9-11 12-12 7-8 17-17 14-11 14-8 9-3h10l9 4 8 7 7 14 2 10v26l-3 17-6 18-8 14-8 10-9 10-15 15-16 11-16 8-13 4h-19l-9-2-3 9-10 25-9 25-9 32-6 26-5 26-3 8-1 1h-7l-10-6-6-5-7-10-5-12-1-3v-23l6-31 8-30 9-26 14-33 1-2v-6l-4-11-2-11v-22l3-16 7-18 8-16 7-11 9-12 11-12 14-14z" fill="#020935"/>
<path transform="translate(696,229)" d="m0 0h36l22 2 19 4 11 5 6 4 2 5-5 12-7 6-8 3-41 1-36 2-32 3-12 3-5 2v4l9 3 26 4 35 3 21 3 16 5 13 7 7 6 6 12 2 9 1 9v13l-3 16-5 10-7 7-15 8-24 7-12 2-13 1h-16l-20-4-13-5-15-8-11-9-8-9-5-10-1-4v-13l5-10 7-7 8-4 12-3h31l20 3 19 5 11 6 4 5 1 5-5 5-9 4-10 2h-17l-12-3-24-12-3-1h-11l-7 6-1 2v7l6 5 7 3 12 1h24l25-3 16-3 16-6 6-4 3-4 1-7-3-6-10-5-16-5-26-5-9-1-36-2-21-3-12-4-8-6-2-4v-20l4-15 4-6 7-7 14-8 24-8 24-5z" fill="#020935"/>
<path transform="translate(1648,255)" d="m0 0h19l14 3 13 5 11 6 9 8 8 10 6 10 6 18 1 7v20l-4 16-7 14-8 10-10 10-14 8-15 5-9 2h-15l-19-3-13-5-12-8-9-8-9-12-6-13-4-15v-24l4-15 7-14 8-10 8-8 14-9 12-5z" fill="#020935"/>
<path transform="translate(603,71)" d="m0 0h21l15 4 8 6 6 7 12 3 9 5 7 8 4 10v12l-4 12-8 14-11 13-8 8-16 12-19 10-13 5-16 3h-23l-11-3-3-2h-3l-5 8-6 5h-9l-5-3-5-8-2-6v-17l-6-8-4-10-1-13 3-14 9-15 12-14 12-10 17-10 17-7 18-4z" fill="#020935"/>
<path transform="translate(1049,235)" d="m0 0h15l14 2 9 5 7 7 8 14 1 8-5 5-7 2-43 4-29 1-6 19h39l12 2 3 6v19l-5 4-5 2-56 1-5 11-5 16-1 7 13-3 43-6 13-1 7 3 8 7 3 7-1 4-11 10-19 11-16 8-27 9-17 3h-12l-10-5-7-6-7-11-5-11-1-5v-18l10-30-1-9-1-4v-10l3-5 5-3 11-3 10-21 2-5-11-2-8-4-8-9-3-6v-6l4-4 16-3 50-6z" fill="#020935"/>
<path transform="translate(886,207)" d="m0 0h9l8 6 7 7 9 13 9 17 7 19 4 21 1 9v36l-3 21-6 21-6 9-9 8-6 3h-14l-7-3-8-7-10-13-13-22-14-27-10-20h-2l-2 10-3 52-3 21-5 12-6 5-3 1h-7l-8-4-5-6-3-9-1-7v-21l3-34 4-23 6-24 8-20 6-9 6-5 2-1h7l6 3 9 9 16 23 10 16 8 13 14 25 8 12 3 1v-14l-4-30-7-36-10-40v-10l3-6z" fill="#020935"/>
<path transform="translate(1926,258)" d="m0 0h18l14 3 12 5 11 7 8 8 9 14 5 13 2 14v9l-3 9-5 4-3 1-94 1 4 13 7 11 10 7 8 3 16 1 14-3 12-6 9-5h7l6 3 4 8v7l-7 8-10 7-10 5-14 4-8 1h-13l-17-3-12-5-12-8-11-11-9-13-5-11-4-16v-24l4-15 7-14 7-9 7-7 10-7 13-6z" fill="#030935"/>
<path transform="translate(1389,257)" d="m0 0h24l15 3 17 10 6 8v8l-7 8-9 2-17-6-13-4h-17l-8 5-3 4v8l6 7 14 6 24 8 17 9 9 8 6 12 1 4v13l-4 13-7 10-12 9-11 4-12 2h-24l-16-4-10-4-12-9-6-9v-7l4-7 5-3 10-1 17 9 12 4 6 1h16l7-3 5-5 1-7-3-6-9-6-17-6-24-9-13-9-6-8-4-10v-16l4-12 6-9 11-8 11-5z" fill="#020935"/>
<path transform="translate(1501,218)" d="m0 0h11l6 4 4 6 1 3 1 28 31 1 5 5 3 5v6l-4 6-5 4-6 2h-25v52l1 25 3 6 8 5 18 1 6 3 4 7v8l-5 6-9 4-14 2h-9l-13-2-9-5-8-8-4-9-2-10-1-84-10-3-7-6-1-2v-9l7-8 2-1 9-1 1-28 3-7 4-4z" fill="#020935"/>
<path transform="translate(205,265)" d="m0 0h7l1 5-2 37-5 58-6-1-18-8-16-8-16-10-14-11-11-10-8-7-10-11-3-9 3-5 12-6 28-7 31-5z" fill="#FEFEFE"/>
<path transform="translate(563,228)" d="m0 0h8l7 7 6 12 2 7 1 14 1 70v35l-2 20-3 8-3 3-9 2h-8l-10-4-5-7-2-9-1-11v-33l3-53 3-32 4-18 4-8z" fill="#020935"/>
<path transform="translate(1778,257)" d="m0 0h11l6 4 4 5 1 3 1 16 8-12 7-8 7-5 8-3h12l6 4 3 6v11l-3 6-6 5-15 4-10 6-9 10-6 12-3 14-1 53-2 9-5 6-4 2h-12l-6-4-4-7v-126l4-6z" fill="#010935"/>
<path transform="translate(1649,285)" d="m0 0h18l11 4 9 6 7 8 5 10 3 12v14l-4 13-7 11-11 8-9 4-10 2-13-1-11-4-9-7-7-8-5-12-2-10v-11l3-12 5-9 9-10 14-7z" fill="#FEFEFE"/>
<path transform="translate(930,67)" d="m0 0 2 4 6 27 5 26 9-7 16-11 2-1-2 5-14 21v2l48 10 6 1-2 2-10 3-17 3-23 5h-3l7 12 8 11 3 6-4-2-13-10-11-8-5 25-5 24-3 9h-1l-2-19-6-31-1-9-14 11-12 8-2-1 7-11 9-12 1-3-12-2-39-8-5-2v-1l55-11-2-6-9-12-5-7 1-2 22 15 6 3v-8l7-39 1-9z" fill="#40A363"/>
<path transform="translate(638,112)" d="m0 0h10l5 2 4 4 1 9-2 8-6 10-7 8-10 8-15 7-11 3-6 1h-25l-9-1-2-1 2-5 11-13 11-11 13-10 10-7 17-9z" fill="#FEFEFE"/>
<path transform="translate(1237,292)" d="m0 0 5 2 2 3 1 10-3 16-8 16-8 10-10 10-19 10-17 6-10 2 2-6 10-16 8-12 10-13 11-14 14-15 10-8z" fill="#FEFEFE"/>
<path transform="translate(1834,411)" d="m0 0h1l1 16 4 18 6 11 9 7 22 8 1 2-21 5-10 6-7 10-4 10-4 19h-2l-4-23-4-10-9-10-10-5-16-5 4-3 14-4 10-5 8-9 5-13z" fill="#40A363"/>
<path transform="translate(1927,285)" d="m0 0h14l10 3 10 9 6 10 4 13v2l-71 1-3-1v-7l4-11 6-8 8-6 8-4z" fill="#FEFEFE"/>
<path transform="translate(83,146)" d="m0 0h2l3 16 5 12 7 8 9 4 20 4-4 2-16 2-12 6-7 8-5 12-3 12h-2l-4-18-6-12-9-7-12-4-13-2v-1l24-5 8-5 4-2 2-5 5-12 3-12z" fill="#BB0638"/>
<path transform="translate(1928,478)" d="m0 0 2 3 3 11 5 10 6 5 12 3-3 2-10 5-6 9-4 15h-1l-3-13-6-8-15-7 2-2 10-5 6-9 1-3z" fill="#40A363"/>
<path transform="translate(159,128)" d="m0 0h1l3 13 4 8 5 5 9 2v3l-10 4-4 4-4 13-2 4-3-12-6-8-9-4-5-1 1-2 10-3 5-4 3-5z" fill="#BB0638"/>
<path transform="translate(576,107)" d="m0 0h5l-2 4-11 7-10 9-7 8-9 10-5 7h-3l-1-6 3-10 7-9 8-9 9-6 11-4z" fill="#FEFEFE"/>
<path transform="translate(109,78)" d="m0 0h1l2 12 5 6 6 3 12 1-3 2-11 4-6 5-3 12-3-4-5-9-7-4-8-2 3-2 9-4 5-6 2-7z" fill="#BB0638"/>
<path transform="translate(1871,557)" d="m0 0h2l2 9 10 5-5 4-4 1-2 10-5-5-2-4-9-3 3-3 6-3z" fill="#40A363"/>
</svg>
